<svg width="32" height="32" viewBox="0 0 32 32" fill="none" xmlns="http://www.w3.org/2000/svg">
<path fill-rule="evenodd" clip-rule="evenodd" d="M10.0702 8.32207C9.84356 8.1101 9.5438 7.9947 9.23408 8.00019C8.92436 8.00567 8.62885 8.13161 8.40981 8.35147C8.19076 8.57133 8.06529 8.86795 8.05983 9.17883C8.05436 9.48971 8.16933 9.79059 8.38051 10.0181L14.3103 15.9701L8.38051 21.9221C8.26305 22.0319 8.16884 22.1644 8.1035 22.3116C8.03815 22.4588 8.00302 22.6177 8.00019 22.7788C7.99735 22.94 8.02688 23.1 8.08701 23.2494C8.14714 23.3988 8.23664 23.5346 8.35016 23.6485C8.46369 23.7625 8.59892 23.8523 8.74778 23.9127C8.89664 23.973 9.05609 24.0027 9.21662 23.9998C9.37714 23.997 9.53545 23.9617 9.6821 23.8961C9.82875 23.8305 9.96074 23.736 10.0702 23.6181L16 17.6661L21.9298 23.6181C22.0393 23.736 22.1712 23.8305 22.3179 23.8961C22.4645 23.9617 22.6229 23.997 22.7834 23.9998C22.9439 24.0027 23.1034 23.973 23.2522 23.9127C23.4011 23.8523 23.5363 23.7625 23.6498 23.6485C23.7634 23.5346 23.8529 23.3988 23.913 23.2494C23.9731 23.1 24.0026 22.94 23.9998 22.7788C23.997 22.6177 23.9618 22.4588 23.8965 22.3116C23.8312 22.1644 23.7369 22.0319 23.6195 21.9221L17.6897 15.9701L23.6195 10.0181C23.8307 9.79059 23.9456 9.48971 23.9402 9.17883C23.9347 8.86795 23.8092 8.57133 23.5902 8.35147C23.3712 8.13161 23.0756 8.00567 22.7659 8.00019C22.4562 7.9947 22.1564 8.1101 21.9298 8.32207L16 14.2741L10.0702 8.32207Z" fill="black"/>
</svg>
