<svg width="24" height="24" viewBox="0 0 24 24" fill="none" xmlns="http://www.w3.org/2000/svg">
<path d="M8.91218 19.6308C6.69637 19.6308 4.63086 18.9863 2.89233 17.8743C4.3684 17.9698 6.97331 17.7411 8.59357 16.1956C6.15617 16.0838 5.05695 14.2144 4.91358 13.4155C5.12068 13.4954 6.10838 13.5913 6.66595 13.3676C3.86215 12.6646 3.43202 10.2041 3.52761 9.45311C4.05332 9.8206 4.94544 9.94842 5.29592 9.91646C2.68328 8.04709 3.62319 5.23504 4.08518 4.6279C5.9601 7.22544 8.77003 8.68432 12.2463 8.76547C12.1807 8.47801 12.1461 8.17873 12.1461 7.87134C12.1461 5.6653 13.9292 3.87695 16.1288 3.87695C17.278 3.87695 18.3136 4.36515 19.0405 5.14605C19.8085 4.9661 20.9643 4.54483 21.5293 4.18053C21.2445 5.20309 20.3578 6.05611 19.8215 6.37228C19.8259 6.38303 19.8171 6.36148 19.8215 6.37228C20.2926 6.30102 21.5673 6.05603 22.0709 5.71437C21.8219 6.28883 20.8819 7.24398 20.1104 7.77872C20.2539 14.1088 15.4108 19.6308 8.91218 19.6308Z" fill="#C5D4E3"/>
</svg>
