<svg width="24" height="24" viewBox="0 0 24 24" fill="none" xmlns="http://www.w3.org/2000/svg">
<path d="M19.3481 5.31904C17.946 4.70284 16.4468 4.25498 14.8795 4C14.6869 4.3269 14.4621 4.76658 14.3071 5.11636C12.6409 4.88099 10.99 4.88099 9.35458 5.11636C9.19957 4.76658 8.96953 4.3269 8.77537 4C7.20631 4.25498 5.70541 4.70447 4.30333 5.32231C1.4753 9.33664 0.708663 13.2513 1.09198 17.1103C2.96768 18.4261 4.78545 19.2253 6.57256 19.7484C7.0138 19.1779 7.40733 18.5716 7.74636 17.9324C7.10069 17.702 6.48227 17.4176 5.89792 17.0874C6.05295 16.9796 6.20457 16.8668 6.35109 16.7507C9.91511 18.3166 13.7874 18.3166 17.3089 16.7507C17.457 16.8668 17.6087 16.9796 17.762 17.0874C17.176 17.4192 16.5558 17.7036 15.9101 17.9341C16.2492 18.5716 16.641 19.1796 17.0839 19.75C18.8727 19.227 20.6922 18.4277 22.5679 17.1103C23.0177 12.6367 21.7996 8.75802 19.3481 5.31904ZM8.23189 14.737C7.16202 14.737 6.28464 13.7988 6.28464 12.6563C6.28464 11.5138 7.14327 10.574 8.23189 10.574C9.32052 10.574 10.1979 11.5122 10.1791 12.6563C10.1809 13.7988 9.32052 14.737 8.23189 14.737ZM15.4281 14.737C14.3582 14.737 13.4808 13.7988 13.4808 12.6563C13.4808 11.5138 14.3394 10.574 15.4281 10.574C16.5166 10.574 17.394 11.5122 17.3753 12.6563C17.3753 13.7988 16.5166 14.737 15.4281 14.737Z" fill="#C5D4E3"/>
</svg>
